<svg width="53" height="44" viewBox="0 0 53 44" fill="none" xmlns="http://www.w3.org/2000/svg">
<path d="M23.256 40H19.152L6.804 21.316V40H2.7V14.944H6.804L19.152 33.592V14.944H23.256V40Z" fill="#767070"/>
<path d="M33.092 27.148C34.436 27.388 35.576 28.096 36.512 29.272C37.448 30.448 37.916 31.78 37.916 33.268C37.916 34.54 37.58 35.692 36.908 36.724C36.26 37.732 35.312 38.536 34.064 39.136C32.816 39.712 31.364 40 29.708 40H19.7V14.98H29.24C30.944 14.98 32.408 15.268 33.632 15.844C34.856 16.42 35.78 17.2 36.404 18.184C37.028 19.144 37.34 20.224 37.34 21.424C37.34 22.864 36.956 24.064 36.188 25.024C35.42 25.984 34.388 26.692 33.092 27.148ZM23.804 25.492H28.88C30.224 25.492 31.268 25.192 32.012 24.592C32.78 23.968 33.164 23.08 33.164 21.928C33.164 20.8 32.78 19.924 32.012 19.3C31.268 18.652 30.224 18.328 28.88 18.328H23.804V25.492ZM29.348 36.652C30.74 36.652 31.832 36.316 32.624 35.644C33.416 34.972 33.812 34.036 33.812 32.836C33.812 31.612 33.392 30.64 32.552 29.92C31.712 29.2 30.596 28.84 29.204 28.84H23.804V36.652H29.348ZM44.0318 40.252C43.2878 40.252 42.6638 40 42.1598 39.496C41.6558 38.992 41.4038 38.368 41.4038 37.624C41.4038 36.88 41.6558 36.256 42.1598 35.752C42.6638 35.248 43.2878 34.996 44.0318 34.996C44.7518 34.996 45.3638 35.248 45.8678 35.752C46.3718 36.256 46.6238 36.88 46.6238 37.624C46.6238 38.368 46.3718 38.992 45.8678 39.496C45.3638 40 44.7518 40.252 44.0318 40.252Z" fill="#767070"/>
</svg>
